<?xml version="1.0" encoding="UTF-8"?>
<!DOCTYPE svg  PUBLIC '-//W3C//DTD SVG 20010904//EN'  'http://www.w3.org/TR/2001/REC-SVG-20010904/DTD/svg10.dtd'>
<svg width="590pt" height="593pt" version="1.0" viewBox="0 0 590.000000 593.000000" xmlns="http://www.w3.org/2000/svg">
<g transform="translate(0 593) scale(.1 -.1)">
<path d="m0 2965v-2965h2950 2950v2965 2965h-2950-2950v-2965zm4083 2869c137-31 276-121 455-297 96-95 217-243 242-298 28-62 25-90-11-125-54-51-93-146-144-354-14-58-37-139-51-180-48-142-103-375-138-580-84-488-118-783-141-1215-8-165-18-319-21-343-11-89-76-105-249-61-208 52-343 69-640 84-176 8-324 23-468 46-71 12-130 19-133 17-5-6 23-1237 36-1528 5-124 17-359 26-522 18-329 18-328-42-328-107 0-460 181-589 302-92 85-103 115-131 341-52 420-87 819-124 1407-11 179-31 465-45 635-35 450-53 740-65 1090-31 907-52 1127-150 1555-55 236-45 260 94 247 78-8 163-37 281-97 192-98 395-261 444-358l22-43 82 46c45 26 105 57 132 70 134 62 595 292 710 354 72 39 155 80 185 92 155 59 297 73 433 43zm1221-1995c147-35 181-40 238-34 64 6 68 5 120-29 73-48 113-85 136-125 25-41 21-53-42-144-56-79-127-226-156-322-49-165-55-172-108-144-27 15-90 104-113 159-21 54-16 211 10 280 12 30 21 60 21 66 0 26-179 46-197 22-21-28-56-134-83-257-12-50-19-456-8-466 2-2 60 19 128 47 114 46 130 50 185 46 81-7 148-43 235-126 80-77 80-79 51-199-26-102-46-348-37-448 4-44 11-127 16-185s15-136 21-175c6-38 12-99 13-135 1-62 0-65-27-74-36-13-191 6-278 34-94 30-270 44-385 30l-93-11-63 31c-126 61-198 131-198 192 0 17 7 31 19 37 10 6 22 25 25 43 14 71 24 125 31 163 14 89 45 196 63 218 22 25 67 21 157-16 89-36 169-87 186-118 12-24 9-48-29-252-10-53-10-53 33-55 30-2 124-19 159-29 15-4 18-2 12 13-13 31-28 186-47 472-7 94-16 172-20 172-5 0-39-12-76-27-104-43-175-39-278 14-44 22-98 57-119 76l-39 36-8 133c-12 188 14 654 46 803 19 91 67 204 106 249 20 22 94 58 144 69 46 10 87 5 249-34zm-4961 10c70-19 91-50 246-358 81-162 151-296 157-298 5-1 29 48 54 110 78 196 174 378 231 441 64 70 90 81 204 89 158 10 181-18 165-198-5-55-9-158-10-228 0-70-5-171-11-225-7-60-12-372-12-826-2-672-3-730-19-739-37-24-237 29-305 79-26 20-26 20-40 239-9 144-13 357-11 617 2 218 1 394-2 391-3-2-5-8-5-11-1-4-8-29-17-57-9-27-21-72-27-100-6-27-15-71-21-97-5-26-10-92-10-147 0-113-9-131-65-131-36 0-142 37-196 69-47 28-56 51-69 178-12 122-15 133-43 223-21 66-67 173-67 155 1-65-12-888-18-1103-8-317-5-306-82-299-82 7-201 97-260 197-16 27-19 283-10 1115 3 278 0 466-9 585-15 210-16 235-1 270 21 52 162 85 253 59z"/>
<path d="m3590 4912c-91-49-206-111-256-139-49-28-216-114-370-191l-280-140 13-124c24-232 43-543 55-905l12-363h100c93 0 484-31 583-46l41-6 6 63c3 35 8 116 11 179 22 449 89 908 235 1608 17 78 30 144 30 147 0 11-22 1-180-83z"/>
</g>
</svg>
