<?xml version="1.0" standalone="no"?>
<!DOCTYPE svg PUBLIC "-//W3C//DTD SVG 20010904//EN"
 "http://www.w3.org/TR/2001/REC-SVG-20010904/DTD/svg10.dtd">
<svg version="1.0" xmlns="http://www.w3.org/2000/svg"
 width="791.000000pt" height="791.000000pt" viewBox="0 0 791.000000 791.000000"
 preserveAspectRatio="xMidYMid meet">
<metadata>
Created by potrace 1.11, written by Peter Selinger 2001-2013
</metadata>
<g transform="translate(0.000000,791.000000) scale(0.100000,-0.100000)"
fill="#000000" stroke="none">
<path d="M20 3955 l0 -3955 3935 0 3935 0 0 3955 0 3955 -3935 0 -3935 0 0
-3955z m5320 3844 c41 -2 81 -7 88 -12 6 -5 12 -7 12 -4 0 18 264 -84 290
-113 3 -3 25 -19 50 -35 243 -164 616 -577 637 -707 5 -30 -13 -98 -26 -98 -8
0 -76 -87 -76 -98 -1 -4 -6 -16 -12 -27 -10 -19 -49 -120 -58 -155 -51 -179
-62 -220 -58 -220 2 0 -1 -8 -6 -17 -5 -10 -11 -31 -14 -48 -3 -16 -24 -88
-47 -160 -23 -71 -43 -139 -45 -149 -3 -10 -9 -33 -14 -50 -6 -17 -13 -42 -15
-56 -3 -14 -12 -54 -21 -90 -19 -76 -71 -329 -79 -380 -3 -19 -10 -60 -16 -90
-6 -30 -13 -71 -16 -90 -2 -19 -9 -57 -14 -85 -5 -27 -12 -72 -15 -100 -4 -27
-9 -58 -12 -69 -3 -10 -7 -35 -8 -55 -4 -46 -13 -109 -20 -141 -3 -14 -8 -48
-11 -76 -2 -28 -7 -62 -9 -75 -3 -13 -7 -55 -10 -94 -3 -38 -7 -79 -10 -90 -5
-25 -13 -97 -20 -190 -3 -38 -7 -92 -10 -120 -8 -88 -16 -198 -20 -285 -24
-466 -31 -562 -45 -605 -13 -39 -70 -71 -125 -70 -44 1 -159 18 -167 25 -2 1
-10 3 -18 5 -40 8 -67 14 -90 19 -14 3 -45 10 -70 16 -25 5 -56 12 -70 14 -14
3 -35 7 -47 10 -12 2 -50 7 -84 11 -35 4 -66 8 -69 10 -7 5 -167 17 -375 29
-203 12 -265 17 -410 30 -84 7 -200 22 -200 26 0 1 -16 3 -35 5 -19 2 -51 6
-70 9 -19 3 -61 8 -92 12 l-57 6 4 -203 c2 -112 7 -343 11 -514 4 -170 7 -363
8 -427 1 -65 3 -118 6 -118 3 0 5 -20 5 -45 0 -25 -4 -45 -8 -45 -5 0 -5 -4
-2 -10 3 -5 8 -81 10 -167 10 -333 31 -868 34 -868 1 0 4 -56 7 -125 2 -69 7
-156 9 -195 3 -38 8 -146 10 -239 6 -194 0 -216 -58 -216 -112 1 -413 137
-651 295 -87 58 -200 160 -233 210 -38 57 -66 187 -89 400 -2 22 -6 58 -9 80
-3 22 -7 58 -10 80 -2 22 -7 60 -10 85 -3 25 -8 68 -10 97 -7 83 -14 145 -20
183 -3 19 -7 64 -10 100 -3 36 -7 90 -10 120 -10 111 -23 268 -30 360 -1 19
-3 35 -4 35 -1 0 -4 36 -6 80 -3 44 -7 112 -10 150 -10 136 -14 201 -20 300
-3 55 -8 116 -10 135 -2 19 -5 74 -7 123 -1 48 -5 87 -8 87 -3 0 -5 28 -5 63
-1 55 -9 189 -20 332 -3 28 -7 84 -10 125 -3 41 -7 104 -10 140 -3 36 -8 92
-10 125 -11 166 -15 214 -20 270 -3 33 -8 105 -11 160 -3 55 -7 123 -9 150 -2
28 -7 93 -9 145 -3 52 -8 136 -11 185 -2 50 -7 158 -10 240 -3 83 -8 202 -10
265 -3 63 -7 178 -10 255 -8 211 -23 536 -30 640 -13 182 -31 384 -42 460 -3
22 -7 54 -9 70 -9 80 -20 148 -60 345 -14 69 -27 136 -29 150 -2 14 -4 26 -6
28 -1 1 -2 5 -3 10 -16 62 -19 80 -22 97 -2 11 -6 31 -9 45 -29 124 -24 189
17 211 19 10 93 13 153 5 234 -31 612 -247 855 -487 40 -39 100 -121 100 -136
0 -4 4 -14 9 -22 7 -11 31 -2 117 45 60 32 150 78 199 102 552 272 994 495
1012 511 7 6 15 11 19 11 12 0 79 34 86 44 4 6 8 7 8 2 0 -4 10 -2 23 6 12 8
34 18 49 21 15 4 40 12 55 18 15 7 35 13 43 15 8 1 26 5 40 8 56 14 200 34
210 30 3 -1 39 -3 80 -5z m1537 -2633 c33 -3 82 -13 107 -20 25 -8 46 -12 46
-9 0 3 6 0 13 -6 8 -6 16 -9 19 -6 2 3 30 -2 61 -10 31 -8 69 -17 84 -20 16
-2 50 -9 77 -14 27 -5 83 -7 125 -5 75 4 141 -9 141 -27 0 -5 6 -9 13 -9 7 0
23 -9 35 -20 12 -11 24 -20 27 -20 5 0 50 -38 82 -69 26 -25 63 -90 65 -114 1
-13 -22 -60 -56 -111 -104 -160 -210 -379 -231 -478 -4 -18 -11 -37 -15 -43
-5 -5 -9 -14 -9 -20 -1 -5 -8 -31 -17 -58 -31 -93 -85 -85 -167 26 -29 38 -52
73 -52 76 -1 3 -8 20 -17 36 -45 86 -40 288 12 432 15 39 16 54 7 61 -18 15
-86 31 -142 33 -106 3 -104 4 -133 -58 -14 -32 -27 -62 -28 -68 -2 -5 -14 -50
-28 -100 -41 -148 -46 -197 -50 -510 -2 -199 1 -235 18 -235 10 0 167 59 246
93 42 17 72 22 145 21 72 -1 170 -30 199 -60 8 -8 18 -14 21 -14 14 0 149
-125 175 -162 31 -42 31 -65 4 -185 -4 -16 -8 -35 -9 -43 -1 -8 -5 -26 -8 -40
-7 -29 -15 -88 -25 -185 -8 -84 -8 -386 1 -470 3 -33 9 -91 12 -130 4 -38 9
-86 11 -105 3 -19 7 -55 9 -79 2 -24 7 -51 10 -60 3 -9 8 -64 11 -122 3 -87 1
-109 -11 -119 -19 -15 -119 -20 -180 -9 -23 4 -60 10 -81 13 -22 3 -54 10 -72
15 -18 5 -36 10 -40 11 -4 0 -25 5 -46 11 -103 28 -207 37 -366 34 -91 -2
-185 -6 -208 -9 -45 -5 -44 -5 -222 90 -14 7 -43 29 -65 49 -22 19 -43 35 -47
35 -9 0 -52 90 -53 113 -1 10 11 34 27 54 15 20 28 39 29 42 0 3 2 13 4 21 5
20 12 58 19 95 3 17 7 40 10 51 2 12 7 37 10 55 3 19 8 45 11 59 3 14 8 41 11
60 3 19 9 40 12 45 4 6 7 12 7 15 2 21 29 99 40 114 8 10 29 22 47 26 63 13
288 -81 379 -160 37 -32 41 -40 41 -80 1 -40 -12 -133 -26 -200 -7 -32 -18
-98 -21 -132 -2 -20 2 -28 14 -30 9 0 21 -2 26 -3 6 -1 35 -5 65 -9 62 -9 69
-11 127 -24 49 -11 55 -8 43 24 -12 31 -25 128 -35 264 -2 30 -6 84 -9 120 -3
36 -8 103 -11 150 -4 47 -8 105 -11 130 -2 25 -7 72 -10 105 -3 33 -9 63 -13
67 -4 4 -52 -8 -106 -28 -101 -36 -172 -45 -244 -29 -71 15 -261 125 -310 178
-18 20 -25 41 -28 89 -12 149 -5 562 12 793 10 140 14 184 20 230 3 28 8 64
10 80 2 17 4 30 5 30 1 0 4 11 6 25 3 21 10 58 13 68 1 1 1 3 1 5 -1 7 41 119
60 162 44 94 74 129 142 164 58 29 155 62 168 56 3 -2 33 -5 67 -9z m-6412
-30 c11 -2 20 -5 20 -6 0 -1 8 -3 17 -5 30 -6 65 -39 104 -100 48 -73 41 -61
181 -335 131 -255 200 -386 219 -414 12 -17 14 -15 32 20 11 22 36 80 56 129
21 50 47 110 58 135 62 135 94 198 112 225 12 17 19 30 16 31 -8 1 95 156 126
190 43 45 95 81 129 88 120 24 226 27 284 8 59 -20 74 -57 72 -177 0 -49 -3
-106 -6 -125 -3 -19 -7 -120 -10 -225 -2 -104 -7 -226 -11 -270 -12 -153 -14
-224 -18 -1029 -3 -444 -7 -810 -9 -813 -3 -2 -1 -20 3 -39 4 -18 5 -34 1 -34
-3 0 -6 -42 -7 -93 -1 -134 -4 -144 -56 -145 -82 -1 -280 51 -319 84 -8 8 -20
14 -26 14 -5 0 -19 10 -31 23 -22 23 -30 68 -38 212 -2 44 -7 109 -10 145 -2
36 -6 338 -8 673 -1 334 -6 610 -9 614 -4 3 -7 -1 -7 -9 0 -8 -9 -44 -20 -78
-11 -35 -22 -73 -25 -84 -2 -12 -7 -32 -10 -46 -3 -14 -8 -38 -11 -55 -2 -16
-9 -46 -13 -65 -10 -41 -10 -31 -15 -188 -4 -120 -17 -181 -40 -183 -50 -7
-96 -4 -123 8 -18 7 -33 10 -33 6 0 -4 -5 -2 -12 5 -7 7 -20 12 -30 12 -10 0
-18 5 -18 12 0 6 -3 8 -7 5 -6 -7 -107 45 -129 67 -22 22 -41 96 -49 191 -15
167 -41 285 -90 400 -31 73 -46 104 -53 109 -4 2 -7 -92 -7 -210 0 -118 -4
-214 -8 -214 -5 0 -5 -5 -1 -11 10 -16 11 -69 2 -96 -4 -13 -4 -23 1 -23 5 0
5 -18 1 -40 -4 -23 -3 -40 2 -40 5 0 6 -5 2 -12 -4 -6 -8 -106 -10 -222 -7
-611 -18 -909 -35 -953 -5 -13 -5 -23 -1 -24 4 0 -3 -4 -16 -9 -13 -6 -42 -7
-65 -4 -23 3 -48 6 -54 7 -7 0 -13 4 -13 9 0 4 -3 7 -7 6 -12 -3 -73 31 -118
66 -70 54 -139 132 -157 176 -17 44 -19 142 -18 750 1 327 2 746 2 930 1 292
-5 525 -17 680 -16 200 -7 270 38 302 59 42 207 64 292 44z"/>
<path d="M4870 6584 c-91 -47 -178 -94 -195 -104 -16 -10 -64 -36 -105 -58
-41 -21 -102 -54 -135 -72 -67 -37 -417 -217 -510 -262 -33 -17 -120 -60 -192
-96 l-133 -67 6 -50 c3 -27 7 -68 9 -90 3 -22 7 -69 10 -105 3 -36 8 -87 10
-115 3 -27 7 -84 10 -125 3 -41 7 -102 10 -135 9 -120 18 -312 19 -402 1 -51
3 -93 6 -93 3 0 6 -46 7 -103 0 -56 4 -185 8 -287 4 -102 8 -220 9 -262 1 -42
5 -80 9 -84 10 -10 59 -11 80 -1 9 4 17 4 17 0 0 -4 39 -9 88 -9 80 -1 133 -4
337 -19 68 -5 85 -7 225 -19 67 -6 125 -14 125 -16 0 -6 85 -8 86 -2 0 4 2 16
5 27 4 19 7 74 18 275 7 126 24 362 30 415 2 17 7 62 10 100 7 73 15 142 21
185 2 14 9 66 15 115 6 50 13 97 15 105 2 8 7 39 10 69 4 30 9 63 11 75 3 12
7 38 9 60 2 21 6 46 9 55 3 9 7 36 11 61 6 48 13 85 15 85 1 0 3 16 5 36 1 20
6 46 10 58 3 12 8 34 10 49 2 15 7 43 10 62 4 19 9 44 11 55 1 11 5 31 8 45 3
13 8 40 11 60 5 34 8 50 20 103 3 12 7 33 10 47 6 31 12 61 25 125 5 28 12 61
14 75 3 14 5 25 6 25 1 0 3 7 5 15 50 247 55 280 47 280 -4 0 -81 -39 -172
-86z"/>
</g>
</svg>
